<svg viewBox="0 0 200 200" xmlns="http://www.w3.org/2000/svg">
  <defs>
    <linearGradient id="bg5" x1="0%" y1="0%" x2="100%" y2="100%">
      <stop offset="0%" style="stop-color:#c62828;stop-opacity:0.2" />
      <stop offset="100%" style="stop-color:#d4af37;stop-opacity:0.2" />
    </linearGradient>
  </defs>
  <!-- Background -->
  <circle cx="100" cy="100" r="100" fill="url(#bg5)"/>
  <circle cx="100" cy="100" r="95" fill="#fef8f3"/>
  
  <!-- Head -->
  <circle cx="100" cy="68" r="35" fill="#f5a962"/>
  
  <!-- Hair curly -->
  <path d="M 70 60 Q 60 35 100 32 Q 140 35 130 60 Q 130 68 100 70 Q 70 68 70 60" fill="#8b6f47"/>
  <circle cx="72" cy="48" r="6" fill="#8b6f47"/>
  <circle cx="128" cy="48" r="6" fill="#8b6f47"/>
  
  <!-- Face accessories - glasses style -->
  <circle cx="80" cy="65" r="8" fill="none" stroke="#1a1a1a" stroke-width="2"/>
  <circle cx="120" cy="65" r="8" fill="none" stroke="#1a1a1a" stroke-width="2"/>
  <line x1="88" y1="65" x2="112" y2="65" stroke="#1a1a1a" stroke-width="2"/>
  
  <!-- Eyes behind glasses -->
  <circle cx="80" cy="65" r="2.5" fill="#1a1a1a"/>
  <circle cx="120" cy="65" r="2.5" fill="#1a1a1a"/>
  
  <!-- Smile -->
  <path d="M 82 78 Q 100 86 118 78" stroke="#8b6f47" stroke-width="2" fill="none" stroke-linecap="round"/>
  
  <!-- Body -->
  <ellipse cx="100" cy="135" rx="32" ry="37" fill="#146b3a"/>
  
  <!-- Sweater collar -->
  <path d="M 75 118 Q 100 128 125 118" fill="#0f4f2b"/>
  
  <!-- Arms -->
  <ellipse cx="57" cy="130" rx="13" ry="31" fill="#f5a962"/>
  <ellipse cx="143" cy="130" rx="13" ry="31" fill="#f5a962"/>
</svg>