<svg viewBox="0 0 200 200" xmlns="http://www.w3.org/2000/svg">
  <defs>
    <linearGradient id="bg4" x1="0%" y1="0%" x2="100%" y2="100%">
      <stop offset="0%" style="stop-color:#146b3a;stop-opacity:0.2" />
      <stop offset="100%" style="stop-color:#c62828;stop-opacity:0.2" />
    </linearGradient>
  </defs>
  <!-- Background -->
  <circle cx="100" cy="100" r="100" fill="url(#bg4)"/>
  <circle cx="100" cy="100" r="95" fill="#f5f1ec"/>
  
  <!-- Head -->
  <circle cx="100" cy="70" r="34" fill="#d4a574"/>
  
  <!-- Hair with volume -->
  <ellipse cx="100" cy="45" rx="38" ry="30" fill="#1a1410"/>
  <path d="M 70 65 Q 65 45 100 38 Q 135 45 130 65" fill="#1a1410"/>
  
  <!-- Eyes (energetic) -->
  <ellipse cx="82" cy="68" rx="5" ry="6" fill="#2d1810"/>
  <ellipse cx="118" cy="68" rx="5" ry="6" fill="#2d1810"/>
  <circle cx="83" cy="66" r="2" fill="#ffd700"/>
  <circle cx="119" cy="66" r="2" fill="#ffd700"/>
  
  <!-- Friendly smile -->
  <path d="M 80 78 Q 100 88 120 78" stroke="#2d1810" stroke-width="2.5" fill="none" stroke-linecap="round"/>
  
  <!-- Blush -->
  <ellipse cx="65" cy="75" rx="5" ry="3" fill="#ffb6c1" opacity="0.6"/>
  <ellipse cx="135" cy="75" rx="5" ry="3" fill="#ffb6c1" opacity="0.6"/>
  
  <!-- Body -->
  <ellipse cx="100" cy="135" rx="31" ry="38" fill="#c62828"/>
  
  <!-- Button detail -->
  <circle cx="100" cy="135" r="3" fill="#ffffff"/>
  
  <!-- Arms -->
  <ellipse cx="58" cy="128" rx="11" ry="32" fill="#d4a574"/>
  <ellipse cx="142" cy="128" rx="11" ry="32" fill="#d4a574"/>
</svg>